<svg width="21.255005" height="21.169628" viewBox="0 0 21.255 21.1696" fill="none" xmlns="http://www.w3.org/2000/svg" xmlns:xlink="http://www.w3.org/1999/xlink">
	<desc>
			Created with Pixso.
	</desc>
	<defs/>
	<path id="Vector" d="M21.16 11.71L3.08 11.71C3.54 15.78 6.53 18.5 10.62 18.5C12.94 18.5 14.98 17.73 16.35 16.01L19.84 16.01C18.34 19.22 14.76 21.16 10.62 21.16C4.4 21.16 0 16.82 0 10.58C0 4.34 4.4 0 10.62 0C16.84 0 21.25 4.38 21.25 10.58C21.25 10.94 21.2 11.3 21.16 11.71ZM3.13 9.09L18.03 9.09C17.44 5.2 14.57 2.66 10.62 2.66C6.67 2.66 3.72 5.2 3.13 9.09Z" fill="#000000" fill-opacity="1.000000" fill-rule="nonzero"/>
</svg>
